<svg width="220" height="120" viewBox="0 0 220 120" fill="none" xmlns="http://www.w3.org/2000/svg">
  <defs>
    <linearGradient id="cMain" x1="28" y1="18" x2="116" y2="98" gradientUnits="userSpaceOnUse">
      <stop offset="0" stop-color="#57F0F4"/>
      <stop offset="0.46" stop-color="#17C8DB"/>
      <stop offset="1" stop-color="#0383BD"/>
    </linearGradient>
    <linearGradient id="cShadow" x1="36" y1="34" x2="102" y2="90" gradientUnits="userSpaceOnUse">
      <stop offset="0" stop-color="#1BA5D0"/>
      <stop offset="1" stop-color="#005DA2"/>
    </linearGradient>
    <linearGradient id="playGrad" x1="70" y1="53" x2="96" y2="76" gradientUnits="userSpaceOnUse">
      <stop offset="0" stop-color="#16D8EA"/>
      <stop offset="1" stop-color="#0476B6"/>
    </linearGradient>
    <linearGradient id="vMain" x1="116" y1="20" x2="194" y2="98" gradientUnits="userSpaceOnUse">
      <stop offset="0" stop-color="#1A3A8A"/>
      <stop offset="0.55" stop-color="#0C2C7A"/>
      <stop offset="1" stop-color="#011A63"/>
    </linearGradient>
    <linearGradient id="bridgeGrad" x1="106" y1="80" x2="138" y2="42" gradientUnits="userSpaceOnUse">
      <stop offset="0" stop-color="#35E2F2"/>
      <stop offset="1" stop-color="#0A8FCA"/>
    </linearGradient>
  </defs>

  <path d="M58 18h56l-9 18H64c-16 0-26 9-28 24l-5-6C32 33 43 18 58 18Z" fill="url(#cMain)"/>
  <path d="M31 54c0 24 15 40 38 40h41l-8 16H66C39 110 20 89 20 58c0-2 0-4 1-6l10 10c0 1 0 1 0 2Z" fill="url(#cMain)"/>
  <path d="M31 54l10 10c3-10 12-16 26-16h27l8-12H64c-17 0-29 7-33 18Z" fill="url(#cShadow)"/>

  <path d="M74 53c-3 0-5 2-5 5v18c0 3 2 5 5 5 1 0 2 0 3-1l22-14c2-1 3-3 3-4 0-2-1-4-3-5L77 54c-1-1-2-1-3-1Z" fill="url(#playGrad)"/>

  <path d="M116 20l23 74h16l23-74h-16l-15 50-16-50h-15Z" fill="url(#vMain)"/>
  <path d="M108 94l22-34 17 34h-39Z" fill="url(#bridgeGrad)"/>
</svg>
